# Blender 3.3.1
# www.blender.org
mtllib chest.mtl
o Cube.002
v -2.628737 1.740492 0.481279
v -2.628737 1.740492 -0.481279
v -2.410282 1.674124 0.481279
v -2.410282 1.674124 -0.481279
v -2.908540 0.819499 0.099851
v -2.797664 1.184457 0.481279
v -2.876065 0.926393 0.369561
v -2.797664 1.184457 -0.481279
v -2.908540 0.819499 -0.099851
v -2.876065 0.926393 -0.369561
v -2.579209 1.118089 0.481279
v -2.690085 0.753131 0.099851
v -2.657610 0.860025 0.369561
v -2.690085 0.753131 -0.099851
v -2.579209 1.118089 -0.481279
v -2.657610 0.860025 -0.369561
v 2.781779 -0.604143 -5.122825
v -2.543850 1.005489 -5.122820
v 1.001455 3.120456 4.557786
v -2.277383 1.680199 4.557786
v -0.062032 3.234565 4.557786
v -1.096222 2.956740 4.557787
v -1.922700 2.322939 4.557787
v -2.277389 1.680204 -4.557778
v 1.001448 3.120461 -5.122821
v -1.922706 2.322944 -4.557778
v -1.096228 2.956745 -4.557778
v -0.062038 3.234570 -4.557778
v 2.933648 0.105204 4.557782
v -2.543844 1.005484 5.122829
v 2.994347 0.836798 4.557783
v 2.657283 1.822271 4.557784
v 1.950109 2.626411 4.557785
v 2.781785 -0.604148 5.122825
v 2.933642 0.105209 -4.557782
v 1.950102 2.626416 -5.122822
v 2.657277 1.822276 -4.557781
v 2.994341 0.836802 -4.557782
v -2.188679 0.898142 -4.769478
v 2.426608 -0.496795 -4.769482
v 2.426614 -0.496800 4.769482
v -2.188673 0.898136 4.769486
v 2.536061 -0.103329 -4.791708
v 0.896016 2.771601 4.813261
v 1.708857 2.348368 4.812044
v -0.015172 2.869443 4.812046
v 0.896010 2.771606 -4.813254
v -0.015179 2.869448 -4.812038
v -0.905679 2.630189 4.812452
v -0.905685 2.630194 -4.812444
v -1.616735 2.084902 4.812452
v -1.616740 2.084907 -4.812443
v -2.061866 1.286358 4.791712
v -2.061872 1.286363 -4.791704
v 2.536066 -0.103333 4.791708
v 1.708851 2.348373 -4.812040
v 2.317760 1.655931 -4.812447
v 2.317766 1.655927 4.812449
v 2.607751 0.808086 -4.812447
v 2.607757 0.808081 4.812449
v -2.543850 1.005489 -5.122820
v 2.781779 -0.604143 -5.122825
v 2.781785 -0.604148 5.122825
v -2.543844 1.005484 5.122829
v 2.909980 -0.179975 -5.122825
v -2.415649 1.429657 -5.122820
v -2.415642 1.429651 5.122829
v 2.909987 -0.179981 5.122825
v -2.686895 1.041359 -5.286998
v 2.920743 -0.653509 -5.287003
v 2.920751 -0.653515 5.287003
v -2.686888 1.041353 5.287007
v 3.053025 -0.215844 -5.287003
v -2.554614 1.479023 -5.286998
v -2.554607 1.479017 5.287007
v 3.053032 -0.215850 5.287003
v 1.001455 3.120455 5.122828
v 1.950109 2.626410 5.122827
v -0.062032 3.234565 5.122829
v 1.001449 3.120461 -4.557779
v -0.062038 3.234571 -5.122820
v -1.096222 2.956740 5.122829
v -1.096228 2.956745 -5.122820
v -1.922700 2.322938 5.122829
v -1.922706 2.322944 -5.122820
v -2.415642 1.429651 5.122829
v -2.415649 1.429657 -5.122820
v 2.657276 1.822276 -5.122823
v 1.950103 2.626416 -4.557780
v 2.657283 1.822271 5.122826
v 2.994341 0.836803 -5.122824
v 2.994348 0.836797 5.122825
v 2.909980 -0.179975 -5.122825
v 2.909987 -0.179981 5.122825
v 1.001455 3.120456 4.557786
v 1.001449 3.120461 -4.557779
v -0.062038 3.234570 -4.557778
v -0.062032 3.234565 4.557786
v -1.096228 2.956745 -4.557778
v -1.096222 2.956740 4.557787
v -1.922706 2.322944 -4.557778
v -1.922700 2.322939 4.557787
v 1.950109 2.626411 4.557785
v 1.950103 2.626416 -4.557780
v 2.657283 1.822271 4.557784
v 2.657277 1.822276 -4.557781
v 2.994347 0.836798 4.557783
v 2.994341 0.836802 -4.557782
v -2.277383 1.680199 4.557786
v -2.277389 1.680204 -4.557778
v 2.933642 0.105209 -4.557782
v 2.933648 0.105204 4.557782
v 0.960434 2.984735 4.557786
v 0.960428 2.984740 -4.557779
v -0.043781 3.092321 -4.557778
v -0.043776 3.092316 4.557786
v -1.022028 2.829582 -4.557778
v -1.022022 2.829577 4.557787
v -1.803559 2.230249 -4.557778
v -1.803554 2.230245 4.557787
v 1.856119 2.518087 4.557785
v 1.856113 2.518092 -4.557780
v 2.525071 1.757495 4.557784
v 2.525065 1.757499 -4.557780
v 2.843805 0.825615 4.557783
v 2.843799 0.825620 -4.557781
v -2.142236 1.610455 4.557786
v -2.142242 1.610460 -4.557778
v 2.782489 0.121997 -4.557782
v 2.782495 0.121992 4.557782
v -2.781782 -3.371755 5.122825
v -2.781783 -3.371756 -5.122825
v 2.781781 -3.371755 5.122825
v 2.781781 -0.604145 -5.122825
v 2.781781 -3.371756 -5.122825
v -2.781783 -0.604145 -5.122825
v -2.781782 -0.604145 5.122825
v 2.781782 -0.604145 5.122825
v 2.139924 -0.604145 -4.535953
v -2.139925 -0.604145 -4.535953
v -2.781783 -0.604145 -5.122825
v 2.781781 -0.604145 -5.122825
v 2.781782 -0.604145 5.122825
v -2.781782 -0.604145 5.122825
v -2.190732 -3.056368 4.643645
v -2.190731 -3.056368 -4.643645
v -2.781783 -0.604145 -5.122825
v 2.781781 -0.604145 -5.122825
v 2.781782 -0.604145 5.122825
v -2.781782 -0.604145 5.122825
v 2.139924 -0.604145 4.535953
v -2.139925 -0.604145 4.535953
v 2.190730 -3.056368 -4.643645
v 2.190730 -3.056368 4.643645
v -2.781783 -3.114203 4.731516
v -2.781782 -3.114203 -4.731516
v -2.781782 -0.861698 -4.731516
v -2.781783 -0.861698 4.731516
v 2.569295 -3.114203 5.122825
v -2.569295 -3.114202 5.122825
v -2.569295 -0.861698 5.122825
v 2.569295 -0.861698 5.122825
v 2.781782 -3.114203 -4.731516
v 2.781782 -3.114203 4.731516
v 2.781781 -0.861698 4.731516
v 2.781781 -0.861698 -4.731516
v -2.569295 -3.114203 -5.122825
v 2.569294 -3.114203 -5.122825
v 2.569295 -0.861698 -5.122825
v -2.569295 -0.861698 -5.122825
v -2.676643 -3.114202 -4.731516
v -2.676643 -3.114203 4.731516
v -2.676643 -0.861698 4.731516
v -2.676643 -0.861698 -4.731516
v -2.569295 -3.114202 4.929204
v 2.569294 -3.114203 4.929204
v 2.569295 -0.861698 4.929204
v -2.569295 -0.861698 4.929204
v 2.676643 -3.114203 4.731516
v 2.676643 -3.114203 -4.731516
v 2.676642 -0.861698 -4.731516
v 2.676643 -0.861698 4.731516
v 2.569294 -3.114203 -4.929204
v -2.569295 -3.114203 -4.929204
v -2.569295 -0.861698 -4.929204
v 2.569295 -0.861698 -4.929204
vn -0.0000 -0.0000 1.0000
vn 0.9568 -0.2907 -0.0000
vn -0.0000 -0.0000 -1.0000
vn -0.9568 0.2907 -0.0000
vn 0.2907 0.9568 -0.0000
vn -0.2686 -0.8840 -0.3827
vn -0.1112 -0.3662 -0.9239
vn -0.2686 -0.8840 0.3827
vn -0.1112 -0.3662 0.9239
vn -0.2907 -0.9568 -0.0000
vn -0.0157 -0.0520 -0.9985
vn 0.9634 -0.2680 -0.0000
vn -0.0157 -0.0520 0.9985
vn -0.9506 0.3105 -0.0000
vn -0.0033 -0.0110 -0.9999
vn 0.1068 0.9943 -0.0000
vn -0.2595 0.9658 -0.0000
vn -0.6085 0.7935 -0.0000
vn -0.8735 0.4869 -0.0000
vn 0.4618 0.8870 -0.0000
vn 0.7509 0.6604 -0.0000
vn 0.9462 0.3236 -0.0000
vn 0.9969 -0.0784 -0.0000
vn -0.0033 -0.0110 0.9999
vn 0.2893 0.9572 -0.0000
vn -0.2891 -0.9564 -0.0429
vn 0.2432 0.9700 -0.0000
vn 0.3347 0.9423 -0.0000
vn -0.2891 -0.9564 0.0429
vn -0.9572 0.2893 -0.0000
vn 0.9572 -0.2893 -0.0000
vn 0.2891 0.9564 -0.0429
vn -0.2432 -0.9700 -0.0000
vn -0.3347 -0.9423 -0.0000
vn 0.2891 0.9564 0.0429
vn -0.4619 -0.8869 -0.0000
vn -0.1067 -0.9943 -0.0000
vn 0.2594 -0.9658 -0.0000
vn 0.6085 -0.7935 -0.0000
vn 0.8755 -0.4831 -0.0000
vn -0.7509 -0.6604 -0.0000
vn -0.9462 -0.3236 -0.0000
vn -0.9966 0.0827 -0.0000
vn -0.4586 -0.8886 -0.0000
vn -0.1104 -0.9939 -0.0000
vn -0.1065 -0.9943 -0.0000
vn 0.8775 -0.4795 -0.0000
vn -0.4620 -0.8869 -0.0000
vn -0.9962 0.0868 -0.0000
vn -0.0000 1.0000 -0.0000
vn 1.0000 -0.0000 -0.0000
vn -0.0000 -1.0000 -0.0000
vn -0.9998 0.0207 -0.0000
vn -0.0000 0.0439 0.9990
vn 0.9998 0.0207 -0.0000
vn -0.0000 0.0439 -0.9990
vn -1.0000 -0.0000 -0.0000
vt 0.352742 0.841509
vt 0.295614 0.824101
vt 0.257845 0.824101
vt 0.318936 0.841509
vt 0.295614 0.841509
vt 0.257845 0.841509
vt 0.352742 0.824101
vt 0.315973 0.841509
vt 0.275250 0.824101
vt 0.315973 0.824101
vt 0.318936 0.824101
vt 0.275250 0.841509
vt 0.278213 0.830999
vt 0.266335 0.861913
vt 0.285108 0.824101
vt 0.342234 0.841509
vt 0.280232 0.826121
vt 0.271212 0.861876
vt 0.337320 0.841509
vt 0.285108 0.841509
vt 0.329443 0.841509
vt 0.278213 0.834610
vt 0.262723 0.861913
vt 0.280232 0.839488
vt 0.257845 0.861876
vt 0.334358 0.841509
vt 0.305470 0.841509
vt 0.342234 0.824101
vt 0.298576 0.834610
vt 0.266335 0.844508
vt 0.300595 0.839488
vt 0.271212 0.844471
vt 0.337320 0.824101
vt 0.298576 0.830999
vt 0.262723 0.844508
vt 0.305470 0.824101
vt 0.329443 0.824101
vt 0.300595 0.826121
vt 0.257845 0.844471
vt 0.334358 0.824101
vt 0.578123 0.425608
vt 0.572217 0.459914
vt 0.578123 0.001481
vt 0.572217 0.459914
vt 0.572217 0.456952
vt 0.367772 0.647188
vt 0.959991 0.918312
vt 0.572217 0.456952
vt 0.367772 0.567021
vt 0.572217 0.456952
vt 0.367772 0.497553
vt 0.572217 0.456952
vt 0.367772 0.451029
vt 0.972562 0.918312
vt 0.572217 0.456952
vt 0.959991 0.753457
vt 0.572217 0.456952
vt 0.766377 0.680944
vt 0.380953 0.647188
vt 0.572217 0.456952
vt 0.370734 0.451029
vt 0.972562 0.753457
vt 0.370734 0.497553
vt 0.572217 0.456952
vt 0.370734 0.567021
vt 0.572217 0.456952
vt 0.908600 0.752855
vt 0.572217 0.456952
vt 0.763416 0.001482
vt 0.572217 0.459914
vt 0.572217 0.456952
vt 0.367772 0.842615
vt 0.921254 0.752855
vt 0.367772 0.796476
vt 0.572217 0.456952
vt 0.367772 0.727265
vt 0.572217 0.456952
vt 0.572217 0.459914
vt 0.763416 0.425608
vt 0.908600 0.917710
vt 0.572217 0.456952
vt 0.769966 0.761099
vt 0.380953 0.727265
vt 0.370734 0.796476
vt 0.572217 0.456952
vt 0.370734 0.842616
vt 0.921254 0.917710
vt 0.572217 0.456952
vt 0.925215 0.369099
vt 0.928177 0.916528
vt 0.584514 0.029766
vt 0.925215 0.001480
vt 0.876636 0.743414
vt 0.584514 0.397322
vt 0.876636 0.915926
vt 0.925215 0.739675
vt 0.757026 0.397323
vt 0.925215 0.372059
vt 0.928177 0.744016
vt 0.757026 0.029767
vt 0.917825 0.002213
vt 0.884041 0.743011
vt 0.383929 0.618935
vt 0.876636 0.555590
vt 0.383951 0.550323
vt 0.879710 0.624269
vt 0.383951 0.687622
vt 0.879710 0.486947
vt 0.876636 0.185566
vt 0.558025 0.618935
vt 0.879710 0.254208
vt 0.558003 0.687622
vt 0.383945 0.747437
vt 0.888509 0.427281
vt 0.888509 0.313873
vt 0.558011 0.747437
vt 0.383945 0.787460
vt 0.952129 0.743238
vt 0.901668 0.387489
vt 0.901668 0.353668
vt 0.558011 0.787460
vt 0.952129 0.917305
vt 0.935576 0.743613
vt 0.917825 0.372708
vt 0.917825 0.368446
vt 0.935576 0.916930
vt 0.884041 0.916328
vt 0.917825 0.738942
vt 0.879710 0.116886
vt 0.558002 0.550323
vt 0.888509 0.057121
vt 0.558010 0.490726
vt 0.383944 0.490726
vt 0.888509 0.684034
vt 0.901668 0.017178
vt 0.558010 0.451027
vt 0.900705 0.742637
vt 0.383944 0.451027
vt 0.900705 0.916703
vt 0.901668 0.723977
vt 0.572217 0.459914
vt 0.192706 0.012712
vt 0.572217 0.459914
vt 0.192705 0.436839
vt 0.572217 0.459914
vt 0.377998 0.436839
vt 0.572217 0.459914
vt 0.377998 0.012713
vt 0.572217 0.453990
vt 0.572191 0.436834
vt 0.572217 0.453990
vt 0.572191 0.012709
vt 0.572217 0.453990
vt 0.386898 0.012710
vt 0.572217 0.453990
vt 0.386898 0.436834
vt 0.819862 0.915771
vt 0.990254 0.001481
vt 0.189736 0.001481
vt 0.819862 0.469112
vt 0.998518 0.195674
vt 0.189736 0.448067
vt 0.998518 0.386905
vt 0.560987 0.897733
vt 0.380967 0.448067
vt 0.560987 0.451075
vt 0.990254 0.192712
vt 0.380967 0.001482
vt 0.828130 0.469162
vt 0.990253 0.195674
vt 0.575160 0.448065
vt 0.828130 0.915817
vt 0.998519 0.001481
vt 0.575160 0.001481
vt 0.569255 0.451028
vt 0.998519 0.192712
vt 0.383929 0.001482
vt 0.990253 0.386905
vt 0.569255 0.897686
vt 0.383929 0.448066
vt 0.001481 0.683605
vt 0.357553 0.647188
vt 0.005070 0.603451
vt 0.357553 0.727265
vt 0.005070 0.763721
vt 0.357553 0.567021
vt 0.370734 0.647188
vt 0.572217 0.456952
vt 0.769966 0.600829
vt 0.380953 0.567021
vt 0.015289 0.833012
vt 0.357553 0.497553
vt 0.780185 0.531536
vt 0.380953 0.497553
vt 0.030582 0.879265
vt 0.357553 0.451029
vt 0.972562 0.928532
vt 0.795479 0.485284
vt 0.380953 0.451029
vt 0.972562 0.743238
vt 0.048623 0.895435
vt 0.572217 0.453990
vt 0.955091 0.928532
vt 0.813519 0.469115
vt 0.572217 0.453990
vt 0.955091 0.743238
vt 0.780185 0.830509
vt 0.380953 0.796476
vt 0.370734 0.727265
vt 0.572217 0.456952
vt 0.015289 0.534039
vt 0.357553 0.796476
vt 0.795479 0.876935
vt 0.380953 0.842616
vt 0.921254 0.927930
vt 0.030582 0.487614
vt 0.357553 0.842616
vt 0.921254 0.742637
vt 0.813519 0.893310
vt 0.572217 0.453990
vt 0.903667 0.927930
vt 0.048623 0.471237
vt 0.572217 0.453990
vt 0.903667 0.742637
vt 0.572217 0.456952
vt 0.142425 0.678534
vt 0.572217 0.456952
vt 0.831092 0.676888
vt 0.572217 0.456952
vt 0.834681 0.757004
vt 0.572217 0.456952
vt 0.146014 0.598419
vt 0.572217 0.456952
vt 0.844900 0.826294
vt 0.572217 0.456952
vt 0.156233 0.529126
vt 0.572217 0.456952
vt 0.860193 0.872547
vt 0.572217 0.456952
vt 0.171526 0.482874
vt 0.572217 0.456952
vt 0.146014 0.758690
vt 0.572217 0.456952
vt 0.834681 0.596733
vt 0.572217 0.456952
vt 0.156233 0.828099
vt 0.572217 0.456952
vt 0.844900 0.527321
vt 0.572217 0.456952
vt 0.171526 0.874526
vt 0.572217 0.456952
vt 0.860193 0.480896
vt 0.189736 0.988955
vt 0.184507 0.471240
vt 0.572217 0.456952
vt 0.189736 0.824100
vt 0.873174 0.884182
vt 0.572217 0.456952
vt 0.551254 0.790423
vt 0.572217 0.456952
vt 0.873174 0.469112
vt 0.551254 0.955278
vt 0.184507 0.886308
vt 0.572217 0.456952
vt 0.144989 0.678549
vt 0.354591 0.635738
vt 0.189736 0.635738
vt 0.833656 0.676872
vt 0.189736 0.711433
vt 0.837047 0.752518
vt 0.354591 0.711433
vt 0.148380 0.602903
vt 0.189736 0.777145
vt 0.846712 0.818066
vt 0.354591 0.777142
vt 0.158045 0.537357
vt 0.189736 0.821136
vt 0.536886 0.790423
vt 0.861175 0.861801
vt 0.354591 0.821136
vt 0.536886 0.955278
vt 0.172508 0.493620
vt 0.354591 0.560127
vt 0.148380 0.754233
vt 0.189736 0.560127
vt 0.837047 0.601189
vt 0.354591 0.494659
vt 0.158045 0.819889
vt 0.189736 0.494659
vt 0.846712 0.535530
vt 0.354591 0.451027
vt 0.521811 0.790423
vt 0.172508 0.863791
vt 0.189736 0.451027
vt 0.521811 0.955278
vt 0.861175 0.491631
vt 0.201130 0.988955
vt 0.185007 0.482645
vt 0.524773 0.955278
vt 0.201130 0.824100
vt 0.873674 0.872776
vt 0.524773 0.790423
vt 0.539848 0.790423
vt 0.509619 0.955278
vt 0.873674 0.480515
vt 0.539848 0.955278
vt 0.185007 0.874908
vt 0.509619 0.790423
vt 0.001481 0.407829
vt 0.766377 0.059222
vt 0.186774 0.407829
vt 0.821507 0.408413
vt 0.001481 0.001480
vt 0.766377 0.466152
vt 0.383930 0.790423
vt 0.572217 0.451028
vt 0.444370 0.975717
vt 0.873673 0.059223
vt 0.186774 0.001480
vt 0.383930 0.975717
vt 0.821507 0.001480
vt 0.572217 0.451028
vt 0.186774 0.468277
vt 0.873673 0.466152
vt 0.572217 0.451028
vt 0.001481 0.468277
vt 0.818544 0.001481
vt 0.572217 0.451028
vt 0.818544 0.408412
vt 0.444370 0.790423
vt 0.752801 0.788043
vt 0.449387 0.956436
vt 0.974363 0.685397
vt 0.752801 0.475451
vt 0.974363 0.372360
vt 0.572217 0.451028
vt 0.572217 0.451028
vt 0.572217 0.451028
vt 0.572217 0.451028
vt 0.586788 0.525292
vt 0.928177 0.321949
vt 0.754749 0.525292
vt 0.928177 0.419807
vt 0.572217 0.451028
vt 0.763415 0.428571
vt 0.572217 0.451028
vt 0.763415 0.834923
vt 0.572217 0.451028
vt 0.578122 0.834923
vt 0.572217 0.451028
vt 0.578122 0.428571
vt 0.588736 0.788043
vt 0.974363 0.056362
vt 0.449387 0.792371
vt 0.588736 0.475451
vt 0.974363 0.369396
vt 0.754749 0.845305
vt 0.506660 0.958385
vt 0.928177 0.740277
vt 0.586788 0.845305
vt 0.928177 0.001480
vt 0.506660 0.790423
vt 0.230530 0.887434
vt 0.008558 0.413456
vt 0.204092 0.995239
vt 0.179697 0.413456
vt 0.238648 0.829806
vt 0.204092 0.824100
vt 0.238648 0.893140
vt 0.179697 0.462654
vt 0.230530 0.824100
vt 0.008558 0.462654
vt 0.980827 0.425988
vt 0.983789 0.853450
vt 0.771233 0.445237
vt 0.771233 0.069390
vt 0.983789 0.478137
vt 0.813690 0.022396
vt 0.983789 0.428946
vt 0.980827 0.001481
vt 0.813690 0.398243
vt 0.980827 0.376790
vt 0.389557 0.968639
vt 0.254883 0.893143
vt 0.389557 0.797501
vt 0.246765 0.824100
vt 0.438747 0.797501
vt 0.246765 0.887436
vt 0.222412 0.824100
vt 0.438747 0.968639
vt 0.254883 0.829807
vt 0.222412 0.995239
vt 0.826362 0.398243
vt 0.987291 0.050672
vt 0.826362 0.022396
vt 0.987291 0.425984
vt 0.980827 0.428947
vt 0.868819 0.069389
vt 0.980827 0.478146
vt 0.868819 0.445236
vt 0.987291 0.001481
vt 0.980827 0.853455
vt 0.179697 0.405777
vt 0.233493 0.824100
vt 0.211771 0.824100
vt 0.225375 0.893140
vt 0.008558 0.405777
vt 0.211771 0.995239
vt 0.225375 0.829807
vt 0.008558 0.454975
vt 0.233493 0.887434
vt 0.179697 0.454975
vt 0.139462 0.847084
vt 0.987291 0.478137
vt 0.977325 0.425988
vt 0.987291 0.853450
vt 0.139462 0.471237
vt 0.097005 0.518230
vt 0.977325 0.376790
vt 0.097005 0.894081
vt 0.987291 0.428946
vt 0.977325 0.001481
vt 0.397236 0.797501
vt 0.241611 0.829807
vt 0.397236 0.968639
vt 0.249729 0.887436
vt 0.446426 0.968639
vt 0.249729 0.824100
vt 0.214733 0.995239
vt 0.446426 0.797501
vt 0.241611 0.893143
vt 0.214733 0.824100
vt 0.051585 0.471237
vt 0.983789 0.425984
vt 0.977325 0.428947
vt 0.051585 0.847084
vt 0.983789 0.050672
vt 0.094043 0.894081
vt 0.983789 0.001481
vt 0.977325 0.853455
vt 0.094043 0.518230
vt 0.977325 0.478146
s 0
usemtl Material.001
f 11/28/1 3/7/1 1/1/1 6/16/1
f 14/34/2 16/38/2 15/36/2 4/10/2 3/8/2 11/27/2 13/31/2 12/29/2
f 8/21/3 2/4/3 4/11/3 15/37/3
f 5/13/4 7/17/4 6/15/4 1/2/4 2/5/4 8/20/4 10/24/4 9/22/4
f 4/12/5 2/6/5 1/3/5 3/9/5
f 14/35/6 9/23/6 10/25/6 16/39/6
f 16/40/7 10/26/7 8/21/7 15/37/7
f 5/14/8 12/30/8 13/32/8 7/18/8
f 7/19/9 13/33/9 11/28/9 6/16/9
f 9/23/10 14/35/10 12/30/10 5/14/10
f 86/202/5 94/223/5 68/155/5 67/153/5
f 34/78/5 30/70/5 64/147/5 63/145/5
f 93/220/5 87/205/5 66/151/5 65/149/5
f 17/42/5 34/78/5 63/145/5 62/143/5
f 87/204/1 93/219/1 91/213/1 88/207/1 36/82/1 25/58/1 81/189/1 83/193/1 85/198/1
f 19/45/5 21/50/5 98/231/5 95/225/5
f 24/57/5 26/60/5 101/237/5 110/258/5
f 29/68/5 31/71/5 107/249/5 112/264/5
f 33/77/5 19/45/5 95/225/5 103/241/5
f 23/55/5 20/48/5 109/255/5 102/239/5
f 38/88/5 35/81/5 111/260/5 108/251/5
f 26/60/5 27/64/5 99/233/5 101/237/5
f 31/71/5 32/75/5 105/245/5 107/249/5
f 94/222/3 86/201/3 84/195/3 82/191/3 79/185/3 77/181/3 78/183/3 90/211/3 92/216/3
f 39/89/11 54/125/11 43/101/11 40/92/11
f 40/93/12 43/102/12 55/127/12 41/95/12
f 41/96/13 55/128/13 53/124/13 42/98/13
f 42/99/14 53/123/14 54/126/14 39/90/14
f 54/125/15 52/120/15 50/115/15 48/111/15 47/109/15 56/129/15 57/131/15 59/135/15 43/101/15
f 44/103/16 47/110/16 48/112/16 46/107/16
f 46/107/17 48/112/17 50/116/17 49/113/17
f 49/113/18 50/116/18 52/121/18 51/117/18
f 51/118/19 52/122/19 54/126/19 53/123/19
f 47/110/20 44/103/20 45/105/20 56/130/20
f 56/130/21 45/105/21 58/133/21 57/132/21
f 57/132/22 58/133/22 60/138/22 59/136/22
f 59/137/23 60/139/23 55/127/23 43/102/23
f 55/128/24 60/140/24 58/134/24 45/106/24 44/104/24 46/108/24 49/114/24 51/119/24 53/124/24
f 34/79/25 17/41/25 40/94/25 41/97/25
f 30/69/25 34/79/25 41/97/25 42/100/25
f 18/43/25 30/69/25 42/100/25 39/91/25
f 17/41/25 18/43/25 39/91/25 40/94/25
f 65/150/26 66/152/26 74/174/26 73/171/26
f 64/148/27 61/142/27 69/159/27 72/168/27
f 62/144/28 63/146/28 71/165/28 70/162/28
f 67/154/29 68/156/29 76/180/29 75/177/29
f 30/70/5 18/44/5 61/141/5 64/147/5
f 18/44/5 17/42/5 62/143/5 61/141/5
f 94/223/5 93/220/5 65/149/5 68/155/5
f 87/205/5 86/202/5 67/153/5 66/151/5
f 69/157/1 70/160/1 73/169/1 74/172/1
f 70/161/30 71/163/30 76/178/30 73/170/30
f 71/164/3 72/166/3 75/175/3 76/179/3
f 72/167/31 69/158/31 74/173/31 75/176/31
f 61/142/32 62/144/32 70/162/32 69/159/32
f 68/156/33 65/150/33 73/171/33 76/180/33
f 66/152/34 67/154/34 75/177/34 74/174/34
f 63/146/35 64/148/35 72/168/35 71/165/35
f 19/46/36 33/76/36 78/184/36 77/182/36
f 21/49/37 19/46/37 77/182/37 79/186/37
f 80/187/37 28/65/37 81/190/37 25/59/37
f 22/51/38 21/49/38 79/186/38 82/192/38
f 28/65/38 27/63/38 83/194/38 81/190/38
f 23/53/39 22/51/39 82/192/39 84/196/39
f 27/63/39 26/61/39 85/199/39 83/194/39
f 20/47/40 23/54/40 84/197/40 86/203/40
f 26/62/40 24/56/40 87/206/40 85/200/40
f 24/56/40 20/47/40 86/203/40 87/206/40
f 37/84/41 89/209/41 36/83/41 88/208/41
f 33/76/41 32/74/41 90/212/41 78/184/41
f 38/86/42 37/84/42 88/208/42 91/214/42
f 32/74/42 31/72/42 92/217/42 90/212/42
f 35/80/43 38/87/43 91/215/43 93/221/43
f 31/73/43 29/67/43 94/224/43 92/218/43
f 29/67/43 35/80/43 93/221/43 94/224/43
f 89/209/36 80/187/36 25/59/36 36/83/36
f 97/230/3 96/228/3 114/268/3 115/270/3
f 109/253/44 110/256/44 128/300/44 127/297/44
f 111/259/45 112/262/45 130/306/45 129/303/45
f 95/226/1 98/232/1 116/272/1 113/265/1
f 110/257/3 101/238/3 119/279/3 128/301/3
f 112/263/1 107/250/1 125/293/1 130/307/1
f 103/242/1 95/226/1 113/265/1 121/284/1
f 102/240/1 109/254/1 127/298/1 120/282/1
f 35/81/5 29/68/5 112/264/5 111/260/5
f 20/48/5 24/57/5 110/258/5 109/255/5
f 28/66/5 80/188/5 96/227/5 97/229/5
f 80/188/5 89/210/5 104/243/5 96/227/5
f 89/210/5 37/85/5 106/247/5 104/243/5
f 21/50/5 22/52/5 100/235/5 98/231/5
f 32/75/5 33/77/5 103/241/5 105/245/5
f 27/64/5 28/66/5 97/229/5 99/233/5
f 37/85/5 38/88/5 108/251/5 106/247/5
f 22/52/5 23/55/5 102/239/5 100/235/5
f 96/228/3 104/244/3 122/286/3 114/268/3
f 104/244/3 106/248/3 124/290/3 122/286/3
f 98/232/1 100/236/1 118/276/1 116/272/1
f 105/246/1 103/242/1 121/284/1 123/288/1
f 99/234/3 97/230/3 115/270/3 117/274/3
f 106/248/3 108/252/3 126/296/3 124/290/3
f 100/236/1 102/240/1 120/282/1 118/276/1
f 107/250/1 105/246/1 123/288/1 125/293/1
f 101/238/3 99/234/3 117/274/3 119/279/3
f 108/252/3 111/261/3 129/305/3 126/296/3
f 132/311/50 131/309/50 133/313/50 135/319/50
f 162/382/51 159/373/51 176/415/51 177/419/51
f 163/383/52 164/385/52 179/423/52 180/425/52
f 158/371/1 155/363/1 172/406/1 173/409/1
f 159/374/52 160/377/52 175/414/52 176/416/52
f 146/342/52 153/357/52 154/360/52 145/340/52
f 143/338/5 144/339/5 150/350/5 149/348/5
f 144/339/5 141/336/5 147/344/5 150/350/5
f 142/337/5 143/338/5 149/348/5 148/346/5
f 141/336/5 142/337/5 148/346/5 147/344/5
f 134/316/5 138/328/5 143/338/5 142/337/5
f 137/325/5 136/322/5 141/336/5 144/339/5
f 138/328/5 137/325/5 144/339/5 143/338/5
f 136/322/5 134/316/5 142/337/5 141/336/5
f 148/347/52 149/349/52 151/352/52 139/331/52
f 147/345/52 148/347/52 139/331/52 140/334/52
f 149/349/52 150/351/52 152/355/52 151/352/52
f 150/351/52 147/345/52 140/334/52 152/355/52
f 145/340/53 152/355/53 140/334/53 146/342/53
f 154/361/54 151/353/54 152/356/54 145/341/54
f 153/358/55 139/332/55 151/354/55 154/362/55
f 146/343/56 140/335/56 139/333/56 153/359/56
f 131/309/51 132/311/51 156/366/51 155/364/51
f 132/311/51 136/323/51 157/370/51 156/366/51
f 136/323/51 137/326/51 158/372/51 157/370/51
f 137/326/51 131/309/51 155/364/51 158/372/51
f 133/314/3 131/310/3 160/376/3 159/375/3
f 131/310/3 137/327/3 161/378/3 160/376/3
f 137/327/3 138/329/3 162/381/3 161/378/3
f 138/329/3 133/314/3 159/375/3 162/381/3
f 135/320/57 133/315/57 164/385/57 163/383/57
f 133/315/57 138/330/57 165/387/57 164/385/57
f 138/330/57 134/317/57 166/390/57 165/387/57
f 134/317/57 135/320/57 163/383/57 166/390/57
f 132/312/1 135/321/1 168/395/1 167/393/1
f 135/321/1 134/318/1 169/398/1 168/395/1
f 134/318/1 136/324/1 170/400/1 169/398/1
f 136/324/1 132/312/1 167/393/1 170/400/1
f 167/394/52 168/396/52 183/434/52 184/437/52
f 156/367/3 157/369/3 174/411/3 171/404/3
f 166/391/3 163/384/3 180/426/3 181/428/3
f 160/377/57 161/379/57 178/421/57 175/414/57
f 170/401/57 167/394/57 184/437/57 185/439/57
f 157/370/50 158/372/50 173/410/50 174/412/50
f 164/386/1 165/388/1 182/431/1 179/424/1
f 161/380/50 162/382/50 177/419/50 178/422/50
f 168/397/51 169/399/51 186/442/51 183/435/51
f 165/389/50 166/392/50 181/429/50 182/432/50
f 169/399/50 170/402/50 185/440/50 186/442/50
f 155/365/52 156/368/52 171/405/52 172/408/52
usemtl Material.002
f 113/266/46 116/271/46 115/269/46 114/267/46
f 116/271/38 118/275/38 117/273/38 115/269/38
f 118/275/39 120/280/39 119/277/39 117/273/39
f 120/281/47 127/299/47 128/302/47 119/278/47
f 114/267/48 122/285/48 121/283/48 113/266/48
f 122/285/41 124/289/41 123/287/41 121/283/41
f 124/289/42 126/294/42 125/291/42 123/287/42
f 126/295/49 129/304/49 130/308/49 125/292/49
f 172/407/51 171/403/51 174/412/51 173/410/51
f 176/417/3 175/413/3 178/420/3 177/418/3
f 180/425/57 179/423/57 182/430/57 181/427/57
f 184/436/1 183/433/1 186/441/1 185/438/1
