# Blender 4.0.2
# www.blender.org
mtllib cube.mtl
o Cube
v 2.006850 2.006850 -2.006850
v 2.006850 -2.006850 -2.006850
v 2.006850 2.006850 2.006850
v 2.006850 -2.006850 2.006850
v -2.006850 2.006850 -2.006850
v -2.006850 -2.006850 -2.006850
v -2.006850 2.006850 2.006850
v -2.006850 -2.006850 2.006850
vn -0.0000 1.0000 -0.0000
vn -0.0000 -0.0000 1.0000
vn -1.0000 -0.0000 -0.0000
vn -0.0000 -1.0000 -0.0000
vn 1.0000 -0.0000 -0.0000
vn -0.0000 -0.0000 -1.0000
vt 0.321714 0.343836
vt 0.011619 0.343836
vt 0.011619 0.033742
vt 0.321714 0.033742
vt 0.011619 0.655047
vt 0.011619 0.344953
vt 0.321714 0.344953
vt 0.321714 0.655047
vt 0.872480 0.342055
vt 0.558847 0.342055
vt 0.558847 0.028423
vt 0.872480 0.028423
vt 0.872480 0.343184
vt 0.872480 0.656816
vt 0.558847 0.656816
vt 0.558847 0.343184
vt 0.011619 0.966258
vt 0.011619 0.656163
vt 0.321714 0.656163
vt 0.321714 0.966258
vt 0.558847 0.971577
vt 0.558847 0.657945
vt 0.872480 0.657945
vt 0.872480 0.971577
s 0
usemtl Water_top
f 1/1/1 5/2/1 7/3/1 3/4/1
usemtl Ground
f 6/13/4 2/14/4 4/15/4 8/16/4
usemtl Water
f 4/5/2 3/6/2 7/7/2 8/8/2
f 8/9/3 7/10/3 5/11/3 6/12/3
f 2/17/5 1/18/5 3/19/5 4/20/5
f 6/21/6 5/22/6 1/23/6 2/24/6
